<svg xmlns="http://www.w3.org/2000/svg" viewBox="0 0 979.35 86.67"><defs><style>.cls-1{fill:#fff;}.cls-2{fill:#d82828;}</style></defs><g id="Layer_2" data-name="Layer 2"><g id="Layer_1-2" data-name="Layer 1"><path class="cls-1" d="M226.53,81.15V5.63h25.91V81.15Z"/><path class="cls-1" d="M389.4,5.63V81.15H361.33L297.72,32.7V81.15H271.81V5.52h31l60.71,46.3V5.63Z"/><path class="cls-1" d="M510,26.17h-73.2V40h70.54V59.41H436.84V81.15h-25.9V5.63H510Z"/><path class="cls-1" d="M526.15,81.15V5.63h25.9V81.15Z"/><path class="cls-1" d="M691.17,5.63V81.15H663.11L599.49,32.7V81.15H573.58V5.52h31l60.71,46.3V5.63Z"/><path class="cls-1" d="M737,44.6q0,8.31,4.79,12.9t17.11,4.58h13.72q22.11,0,22.11-17.48v-39h25.91V44.7q0,16.59-10.37,27.05T778.55,82.2H752.84a58.38,58.38,0,0,1-19.35-2.9,37.85,37.85,0,0,1-15.3-10.61q-7.07-7.71-7.06-24V5.63H737Z"/><path class="cls-1" d="M866.44,81.15H840.53V5.63h37.34l32.23,49.5,31.38-49.5h37.87V81.15H953.49V30.22L921.21,81.15H899.56L866.44,30.33Z"/><path class="cls-2" d="M132.26,0c-19,0-32.54,13.53-44.46,26C75.87,13.53,62.29,0,43.33,0a43.34,43.34,0,0,0,0,86.67c19,0,32.56-13.53,44.48-26,11.93,12.44,25.52,26,44.45,26a43.34,43.34,0,1,0,0-86.67Zm19,43.33a19,19,0,0,1-19,19c-8.94,0-17.59-8.76-27.43-19,9.52-9.94,18.54-19,27.43-19A19,19,0,0,1,151.29,43.33Zm-80.52,0c-9.14,9.56-18.54,19-27.44,19a19,19,0,0,1,0-38C52.23,24.31,60.84,33,70.77,43.34Z"/></g></g></svg>